<?xml version="1.0" encoding="UTF-8" standalone="no"?>
<!DOCTYPE svg PUBLIC "-//W3C//DTD SVG 1.1//EN"
 "http://www.w3.org/Graphics/SVG/1.1/DTD/svg11.dtd">
<!-- Generated by graphviz version 2.26.3 (20100126.1600)
 -->
<!-- Title: Anonymous Pages: 1 -->
<svg width="125pt" height="188pt"
 viewBox="0.00 0.00 125.00 188.00" xmlns="http://www.w3.org/2000/svg" xmlns:xlink="http://www.w3.org/1999/xlink">
<g id="graph1" class="graph" transform="scale(1 1) rotate(0) translate(4 184)">
<title>Anonymous</title>
<polygon fill="white" stroke="white" points="-4,5 -4,-184 122,-184 122,5 -4,5"/>
<!-- u_2 -->
<g id="node1" class="node"><title>u_2</title>
<polygon fill="none" stroke="black" points="10,-158 10,-174 49,-174 49,-158 10,-158"/>
<text text-anchor="start" x="13.5" y="-163.9" font-family="Courier,monospace" font-size="9.00">SinOsc</text>
<polygon fill="none" stroke="black" points="51,-158 51,-174 73,-174 73,-158 51,-158"/>
<text text-anchor="start" x="54" y="-163.9" font-family="Courier,monospace" font-size="9.00">440</text>
<polygon fill="none" stroke="black" points="75,-158 75,-174 87,-174 87,-158 75,-158"/>
<text text-anchor="start" x="78" y="-163.9" font-family="Courier,monospace" font-size="9.00">0</text>
<polygon fill="none" stroke="black" points="75,-150 75,-156 87,-156 87,-150 75,-150"/>
</g>
<!-- u_4 -->
<g id="node2" class="node"><title>u_4</title>
<polygon fill="none" stroke="black" points="63,-86 63,-102 76,-102 76,-86 63,-86"/>
<text text-anchor="start" x="66.5" y="-91.9" font-family="Courier,monospace" font-size="9.00">*</text>
<polygon fill="none" stroke="black" points="78,-86 78,-102 84,-102 84,-86 78,-86"/>
<polygon fill="none" stroke="black" points="86,-86 86,-102 108,-102 108,-86 86,-86"/>
<text text-anchor="start" x="89" y="-91.9" font-family="Courier,monospace" font-size="9.00">0.1</text>
<polygon fill="none" stroke="black" points="86,-78 86,-84 108,-84 108,-78 86,-78"/>
</g>
<!-- u_2&#45;&gt;u_4 -->
<g id="edge2" class="edge"><title>u_2:o_0&#45;&gt;u_4:i_0</title>
<path fill="none" stroke="black" d="M81,-150C81,-150 81,-114.551 81,-104.581"/>
<polygon fill="black" stroke="black" points="80,-102 82,-102 82.0001,-104 80.0001,-104 80,-102"/>
<polyline fill="none" stroke="black" points="81.0001,-104 81.0001,-104.5 "/>
</g>
<!-- u_5 -->
<g id="node3" class="node"><title>u_5</title>
<polygon fill="none" stroke="black" points="55,-10 55,-26 78,-26 78,-10 55,-10"/>
<text text-anchor="start" x="58.5" y="-15.9" font-family="Courier,monospace" font-size="9.00">Out</text>
<polygon fill="none" stroke="black" points="80,-10 80,-26 92,-26 92,-10 80,-10"/>
<text text-anchor="start" x="83" y="-15.9" font-family="Courier,monospace" font-size="9.00">0</text>
<polygon fill="none" stroke="black" points="94,-10 94,-26 100,-26 100,-10 94,-10"/>
</g>
<!-- u_4&#45;&gt;u_5 -->
<g id="edge4" class="edge"><title>u_4:o_0&#45;&gt;u_5:i_1</title>
<path fill="none" stroke="black" d="M97,-78C97,-78 97,-38.8953 97,-28.5081"/>
<polygon fill="black" stroke="black" points="96,-26 98,-26 98.0001,-28 96.0001,-28 96,-26"/>
<polyline fill="none" stroke="black" points="97.0001,-28 97.0001,-28.5 "/>
</g>
</g>
</svg>
