<?xml version="1.0" encoding="UTF-8" standalone="no"?>
<!DOCTYPE svg PUBLIC "-//W3C//DTD SVG 1.1//EN"
 "http://www.w3.org/Graphics/SVG/1.1/DTD/svg11.dtd">
<!-- Generated by graphviz version 2.26.3 (20100126.1600)
 -->
<!-- Title: Anonymous Pages: 1 -->
<svg width="443pt" height="332pt"
 viewBox="0.00 0.00 443.00 332.00" xmlns="http://www.w3.org/2000/svg" xmlns:xlink="http://www.w3.org/1999/xlink">
<g id="graph1" class="graph" transform="scale(1 1) rotate(0) translate(4 328)">
<title>Anonymous</title>
<polygon fill="white" stroke="white" points="-4,5 -4,-328 440,-328 440,5 -4,5"/>
<!-- u_2 -->
<g id="node1" class="node"><title>u_2</title>
<polygon fill="none" stroke="blue" points="10,-302 10,-318 49,-318 49,-302 10,-302"/>
<text text-anchor="start" x="13.5" y="-307.9" font-family="Courier,monospace" font-size="9.00">SinOsc</text>
<polygon fill="none" stroke="blue" points="51,-302 51,-318 79,-318 79,-302 51,-302"/>
<text text-anchor="start" x="54" y="-307.9" font-family="Courier,monospace" font-size="9.00">0.25</text>
<polygon fill="none" stroke="blue" points="81,-302 81,-318 93,-318 93,-302 81,-302"/>
<text text-anchor="start" x="84" y="-307.9" font-family="Courier,monospace" font-size="9.00">0</text>
<polygon fill="none" stroke="blue" points="81,-294 81,-300 93,-300 93,-294 81,-294"/>
</g>
<!-- u_4 -->
<g id="node2" class="node"><title>u_4</title>
<polygon fill="none" stroke="blue" points="79,-230 79,-246 92,-246 92,-230 79,-230"/>
<text text-anchor="start" x="82.5" y="-235.9" font-family="Courier,monospace" font-size="9.00">*</text>
<polygon fill="none" stroke="blue" points="94,-230 94,-246 100,-246 100,-230 94,-230"/>
<polygon fill="none" stroke="blue" points="102,-230 102,-246 119,-246 119,-230 102,-230"/>
<text text-anchor="start" x="105" y="-235.9" font-family="Courier,monospace" font-size="9.00">10</text>
<polygon fill="none" stroke="blue" points="102,-222 102,-228 119,-228 119,-222 102,-222"/>
</g>
<!-- u_2&#45;&gt;u_4 -->
<g id="edge2" class="edge"><title>u_2:o_0&#45;&gt;u_4:i_0</title>
<path fill="none" stroke="black" d="M87,-294C87,-294 94.3853,-258.551 96.4624,-248.581"/>
<polygon fill="black" stroke="black" points="96.021,-245.796 97.979,-246.204 97.571,-248.162 95.613,-247.754 96.021,-245.796"/>
<polyline fill="none" stroke="black" points="96.592,-247.958 96.49,-248.447 "/>
</g>
<!-- u_9 -->
<g id="node5" class="node"><title>u_9</title>
<polygon fill="none" stroke="blue" points="102,-154 102,-170 125,-170 125,-154 102,-154"/>
<text text-anchor="start" x="105.5" y="-159.9" font-family="Courier,monospace" font-size="9.00">Out</text>
<polygon fill="none" stroke="blue" points="127,-154 127,-170 139,-170 139,-154 127,-154"/>
<text text-anchor="start" x="130" y="-159.9" font-family="Courier,monospace" font-size="9.00">0</text>
<polygon fill="none" stroke="blue" points="141,-154 141,-170 147,-170 147,-154 141,-154"/>
<polygon fill="none" stroke="blue" points="149,-154 149,-170 155,-170 155,-154 149,-154"/>
</g>
<!-- u_4&#45;&gt;u_9 -->
<g id="edge6" class="edge"><title>u_4:o_0&#45;&gt;u_9:i_1</title>
<path fill="none" stroke="black" d="M111,-222C111,-222 136.266,-182.188 142.582,-172.234"/>
<polygon fill="black" stroke="black" points="143.156,-169.464 144.844,-170.536 143.773,-172.225 142.084,-171.153 143.156,-169.464"/>
<polyline fill="none" stroke="black" points="142.928,-171.689 142.66,-172.111 "/>
</g>
<!-- u_6 -->
<g id="node3" class="node"><title>u_6</title>
<polygon fill="none" stroke="blue" points="130,-302 130,-318 169,-318 169,-302 130,-302"/>
<text text-anchor="start" x="133.5" y="-307.9" font-family="Courier,monospace" font-size="9.00">SinOsc</text>
<polygon fill="none" stroke="blue" points="171,-302 171,-318 199,-318 199,-302 171,-302"/>
<text text-anchor="start" x="174" y="-307.9" font-family="Courier,monospace" font-size="9.00">0.35</text>
<polygon fill="none" stroke="blue" points="201,-302 201,-318 213,-318 213,-302 201,-302"/>
<text text-anchor="start" x="204" y="-307.9" font-family="Courier,monospace" font-size="9.00">0</text>
<polygon fill="none" stroke="blue" points="201,-294 201,-300 213,-300 213,-294 201,-294"/>
</g>
<!-- u_8 -->
<g id="node4" class="node"><title>u_8</title>
<polygon fill="none" stroke="blue" points="178,-230 178,-246 191,-246 191,-230 178,-230"/>
<text text-anchor="start" x="181.5" y="-235.9" font-family="Courier,monospace" font-size="9.00">*</text>
<polygon fill="none" stroke="blue" points="193,-230 193,-246 199,-246 199,-230 193,-230"/>
<polygon fill="none" stroke="blue" points="201,-230 201,-246 218,-246 218,-230 201,-230"/>
<text text-anchor="start" x="204" y="-235.9" font-family="Courier,monospace" font-size="9.00">15</text>
<polygon fill="none" stroke="blue" points="201,-222 201,-228 218,-228 218,-222 201,-222"/>
</g>
<!-- u_6&#45;&gt;u_8 -->
<g id="edge4" class="edge"><title>u_6:o_0&#45;&gt;u_8:i_0</title>
<path fill="none" stroke="black" d="M207,-294C207,-294 198.876,-258.551 196.591,-248.581"/>
<polygon fill="black" stroke="black" points="195.025,-246.223 196.975,-245.777 197.422,-247.726 195.472,-248.173 195.025,-246.223"/>
<polyline fill="none" stroke="black" points="196.447,-247.949 196.559,-248.437 "/>
</g>
<!-- u_8&#45;&gt;u_9 -->
<g id="edge8" class="edge"><title>u_8:o_0&#45;&gt;u_9:i_2</title>
<path fill="none" stroke="black" d="M210,-222C210,-222 163.994,-180.753 153.93,-171.73"/>
<polygon fill="black" stroke="black" points="151.332,-170.745 152.668,-169.255 154.157,-170.591 152.822,-172.08 151.332,-170.745"/>
<polyline fill="none" stroke="black" points="153.489,-171.335 153.861,-171.669 "/>
</g>
<!-- u_11 -->
<g id="node6" class="node"><title>u_11</title>
<polygon fill="none" stroke="blue" points="323,-302 323,-318 341,-318 341,-302 323,-302"/>
<text text-anchor="start" x="326.5" y="-307.9" font-family="Courier,monospace" font-size="9.00">In</text>
<polygon fill="none" stroke="blue" points="343,-302 343,-318 355,-318 355,-302 343,-302"/>
<text text-anchor="start" x="346" y="-307.9" font-family="Courier,monospace" font-size="9.00">0</text>
<polygon fill="none" stroke="blue" points="323,-294 323,-300 341,-300 341,-294 323,-294"/>
<polygon fill="none" stroke="blue" points="343,-294 343,-300 355,-300 355,-294 343,-294"/>
</g>
<!-- u_13 -->
<g id="node7" class="node"><title>u_13</title>
<polygon fill="none" stroke="blue" points="256,-230 256,-246 269,-246 269,-230 256,-230"/>
<text text-anchor="start" x="259.5" y="-235.9" font-family="Courier,monospace" font-size="9.00">+</text>
<polygon fill="none" stroke="blue" points="271,-230 271,-246 293,-246 293,-230 271,-230"/>
<text text-anchor="start" x="274" y="-235.9" font-family="Courier,monospace" font-size="9.00">440</text>
<polygon fill="none" stroke="blue" points="295,-230 295,-246 301,-246 301,-230 295,-230"/>
<polygon fill="none" stroke="blue" points="295,-222 295,-228 301,-228 301,-222 295,-222"/>
</g>
<!-- u_11&#45;&gt;u_13 -->
<g id="edge10" class="edge"><title>u_11:o_0&#45;&gt;u_13:i_1</title>
<path fill="none" stroke="black" d="M322,-297C322,-297 303.952,-258.647 299.158,-248.46"/>
<polygon fill="black" stroke="black" points="297.095,-246.426 298.905,-245.574 299.756,-247.384 297.947,-248.235 297.095,-246.426"/>
<polyline fill="none" stroke="black" points="298.852,-247.81 299.065,-248.262 "/>
</g>
<!-- u_19 -->
<g id="node10" class="node"><title>u_19</title>
<polygon fill="none" stroke="blue" points="342,-230 342,-246 355,-246 355,-230 342,-230"/>
<text text-anchor="start" x="345.5" y="-235.9" font-family="Courier,monospace" font-size="9.00">+</text>
<polygon fill="none" stroke="blue" points="357,-230 357,-246 379,-246 379,-230 357,-230"/>
<text text-anchor="start" x="360" y="-235.9" font-family="Courier,monospace" font-size="9.00">220</text>
<polygon fill="none" stroke="blue" points="381,-230 381,-246 387,-246 387,-230 381,-230"/>
<polygon fill="none" stroke="blue" points="381,-222 381,-228 387,-228 387,-222 381,-222"/>
</g>
<!-- u_11&#45;&gt;u_19 -->
<g id="edge16" class="edge"><title>u_11:o_1&#45;&gt;u_19:i_1</title>
<path fill="none" stroke="black" d="M349,-294C349,-294 375.797,-257.25 382.496,-248.062"/>
<polygon fill="black" stroke="black" points="383.192,-245.411 384.808,-246.589 383.63,-248.205 382.014,-247.027 383.192,-245.411"/>
<polyline fill="none" stroke="black" points="382.822,-247.616 382.527,-248.02 "/>
</g>
<!-- u_14 -->
<g id="node8" class="node"><title>u_14</title>
<polygon fill="none" stroke="black" points="250,-158 250,-174 289,-174 289,-158 250,-158"/>
<text text-anchor="start" x="253.5" y="-163.9" font-family="Courier,monospace" font-size="9.00">SinOsc</text>
<polygon fill="none" stroke="black" points="291,-158 291,-174 297,-174 297,-158 291,-158"/>
<polygon fill="none" stroke="black" points="299,-158 299,-174 311,-174 311,-158 299,-158"/>
<text text-anchor="start" x="302" y="-163.9" font-family="Courier,monospace" font-size="9.00">0</text>
<polygon fill="none" stroke="black" points="299,-150 299,-156 311,-156 311,-150 299,-150"/>
</g>
<!-- u_13&#45;&gt;u_14 -->
<g id="edge12" class="edge"><title>u_13:o_0&#45;&gt;u_14:i_0</title>
<path fill="none" stroke="black" d="M298,-222C298,-222 295.046,-186.551 294.215,-176.581"/>
<polygon fill="black" stroke="black" points="293.003,-174.083 294.997,-173.917 295.163,-175.91 293.17,-176.076 293.003,-174.083"/>
<polyline fill="none" stroke="black" points="294.166,-175.993 294.208,-176.491 "/>
</g>
<!-- u_16 -->
<g id="node9" class="node"><title>u_16</title>
<polygon fill="none" stroke="black" points="295,-86 295,-102 308,-102 308,-86 295,-86"/>
<text text-anchor="start" x="298.5" y="-91.9" font-family="Courier,monospace" font-size="9.00">*</text>
<polygon fill="none" stroke="black" points="310,-86 310,-102 316,-102 316,-86 310,-86"/>
<polygon fill="none" stroke="black" points="318,-86 318,-102 340,-102 340,-86 318,-86"/>
<text text-anchor="start" x="321" y="-91.9" font-family="Courier,monospace" font-size="9.00">0.1</text>
<polygon fill="none" stroke="black" points="318,-78 318,-84 340,-84 340,-78 318,-78"/>
</g>
<!-- u_14&#45;&gt;u_16 -->
<g id="edge14" class="edge"><title>u_14:o_0&#45;&gt;u_16:i_0</title>
<path fill="none" stroke="black" d="M305,-150C305,-150 310.908,-114.551 312.57,-104.581"/>
<polygon fill="black" stroke="black" points="312.014,-101.836 313.986,-102.164 313.658,-104.137 311.685,-103.808 312.014,-101.836"/>
<polyline fill="none" stroke="black" points="312.671,-103.973 312.589,-104.466 "/>
</g>
<!-- u_22 -->
<g id="node13" class="node"><title>u_22</title>
<polygon fill="none" stroke="black" points="326,-10 326,-26 349,-26 349,-10 326,-10"/>
<text text-anchor="start" x="329.5" y="-15.9" font-family="Courier,monospace" font-size="9.00">Out</text>
<polygon fill="none" stroke="black" points="351,-10 351,-26 363,-26 363,-10 351,-10"/>
<text text-anchor="start" x="354" y="-15.9" font-family="Courier,monospace" font-size="9.00">0</text>
<polygon fill="none" stroke="black" points="365,-10 365,-26 371,-26 371,-10 365,-10"/>
<polygon fill="none" stroke="black" points="373,-10 373,-26 379,-26 379,-10 373,-10"/>
</g>
<!-- u_16&#45;&gt;u_22 -->
<g id="edge22" class="edge"><title>u_16:o_0&#45;&gt;u_22:i_1</title>
<path fill="none" stroke="black" d="M341,-81C341,-81 361.672,-38.8906 366.84,-28.3633"/>
<polygon fill="black" stroke="black" points="367.102,-25.5593 368.898,-26.4407 368.016,-28.236 366.221,-27.3546 367.102,-25.5593"/>
<polyline fill="none" stroke="black" points="367.119,-27.7953 366.898,-28.2442 "/>
</g>
<!-- u_20 -->
<g id="node11" class="node"><title>u_20</title>
<polygon fill="none" stroke="black" points="348,-158 348,-174 387,-174 387,-158 348,-158"/>
<text text-anchor="start" x="351.5" y="-163.9" font-family="Courier,monospace" font-size="9.00">SinOsc</text>
<polygon fill="none" stroke="black" points="389,-158 389,-174 395,-174 395,-158 389,-158"/>
<polygon fill="none" stroke="black" points="397,-158 397,-174 409,-174 409,-158 397,-158"/>
<text text-anchor="start" x="400" y="-163.9" font-family="Courier,monospace" font-size="9.00">0</text>
<polygon fill="none" stroke="black" points="397,-150 397,-156 409,-156 409,-150 397,-150"/>
</g>
<!-- u_19&#45;&gt;u_20 -->
<g id="edge18" class="edge"><title>u_19:o_0&#45;&gt;u_20:i_0</title>
<path fill="none" stroke="black" d="M384,-222C384,-222 389.908,-186.551 391.57,-176.581"/>
<polygon fill="black" stroke="black" points="391.014,-173.836 392.986,-174.164 392.658,-176.137 390.685,-175.808 391.014,-173.836"/>
<polyline fill="none" stroke="black" points="391.671,-175.973 391.589,-176.466 "/>
</g>
<!-- u_21 -->
<g id="node12" class="node"><title>u_21</title>
<polygon fill="none" stroke="black" points="381,-86 381,-102 394,-102 394,-86 381,-86"/>
<text text-anchor="start" x="384.5" y="-91.9" font-family="Courier,monospace" font-size="9.00">*</text>
<polygon fill="none" stroke="black" points="396,-86 396,-102 402,-102 402,-86 396,-86"/>
<polygon fill="none" stroke="black" points="404,-86 404,-102 426,-102 426,-86 404,-86"/>
<text text-anchor="start" x="407" y="-91.9" font-family="Courier,monospace" font-size="9.00">0.1</text>
<polygon fill="none" stroke="black" points="404,-78 404,-84 426,-84 426,-78 404,-78"/>
</g>
<!-- u_20&#45;&gt;u_21 -->
<g id="edge20" class="edge"><title>u_20:o_0&#45;&gt;u_21:i_0</title>
<path fill="none" stroke="black" d="M403,-150C403,-150 400.046,-114.551 399.215,-104.581"/>
<polygon fill="black" stroke="black" points="398.003,-102.083 399.997,-101.917 400.163,-103.91 398.17,-104.076 398.003,-102.083"/>
<polyline fill="none" stroke="black" points="399.166,-103.993 399.208,-104.491 "/>
</g>
<!-- u_21&#45;&gt;u_22 -->
<g id="edge24" class="edge"><title>u_21:o_0&#45;&gt;u_22:i_2</title>
<path fill="none" stroke="black" d="M415,-78C415,-78 385.141,-38.1875 377.676,-28.2344"/>
<polygon fill="black" stroke="black" points="375.2,-26.6 376.8,-25.4 378,-27 376.4,-28.2 375.2,-26.6"/>
<polyline fill="none" stroke="black" points="377.2,-27.6 377.5,-28 "/>
</g>
</g>
</svg>
